<svg width="69" height="92" viewBox="0 0 69 92" fill="none" xmlns="http://www.w3.org/2000/svg">
<g id="Layer_1" clip-path="url(#clip0_2081_2458)">
<path id="Vector" d="M42.787 31.4963C46.061 29.8199 48.763 30.7883 51.3208 32.3969C57.6563 36.3871 62.5253 41.8475 66.1429 48.515C68.441 52.7494 68.176 56.9485 65.9357 61.0987C64.1806 64.3484 61.7645 67.0257 59.0414 69.4236C58.8866 69.5593 58.7292 69.6922 58.682 70.0095C59.9832 69.25 61.2792 68.4878 62.583 67.7364C63.4618 67.2319 64.317 66.6676 65.2405 66.2743C66.6466 65.6748 67.6356 66.098 68.3308 67.5085C69.1677 69.2093 69.1388 71.0023 68.6771 72.7899C67.7563 76.3597 65.857 79.368 63.4907 82.0805C59.0099 87.2182 53.2411 89.8847 46.7903 91.0565C39.3556 92.4073 31.8738 92.4399 24.5965 90.2563C11.4508 86.3095 3.68559 77.0758 0.883826 63.342C-0.0396025 58.8229 -0.485576 54.1735 0.792007 49.6923C4.43325 36.916 9.44914 24.7826 17.2642 14.0489C17.335 13.9513 17.3953 13.8401 17.4793 13.7587C18.8644 12.4295 19.4285 11.0895 18.8303 8.93301C18.025 6.02241 19.9112 2.51775 22.4742 0.985142C25.1054 -0.588157 28.2299 -0.254509 30.7824 1.7962C31.0841 2.04034 31.6534 2.09188 32.0574 2.01321C38.1725 0.816962 44.1433 1.14247 49.8937 3.7791C51.9714 4.73122 53.8839 5.98715 55.3346 7.81272C56.6935 9.52164 58.4092 10.6664 60.2797 11.613C61.6333 12.2966 63.0158 12.9286 64.4062 13.5281C65.1959 13.8672 65.5605 14.35 65.2615 15.2289C64.1019 18.6278 62.3443 21.5737 59.3274 23.5593C57.8347 24.5439 56.14 24.5982 54.4505 24.6931C52.323 24.8125 50.1823 24.826 48.0783 25.1244C45.9796 25.4228 44.1328 26.3668 43.3379 28.6155C43.0467 29.4374 42.9969 30.3516 42.787 31.4936V31.4963ZM46.5568 63.8791C46.0059 62.1892 45.4786 60.7352 45.0641 59.2487C44.7152 57.9928 44.6785 56.7016 45.2503 55.481C45.7829 54.3444 46.6355 54.0677 47.6481 54.7675C48.3092 55.2233 48.8811 55.8119 49.4923 56.3436C50.6912 57.3879 51.8691 58.4594 53.1074 59.4522C53.3592 59.6556 53.9311 59.7261 54.1987 59.5715C57.4753 57.6781 60.1249 55.1093 61.8563 51.6264C62.7037 49.9256 62.6171 49.1281 61.2293 47.902C57.3362 44.4651 52.7637 42.645 47.6822 42.3873C42.139 42.1079 37.1494 43.985 32.771 47.3812C29.9613 49.5594 27.456 52.1526 24.746 54.4746C23.8803 55.2151 22.8231 55.7495 21.7947 56.2459C21.1573 56.5524 20.5408 56.3002 19.919 55.8282C18.3712 54.6536 16.7815 53.517 15.1183 52.5324C12.6051 51.0459 9.95546 49.8551 6.9753 49.1769C7.9512 49.9473 8.84577 50.5929 9.67476 51.3199C10.509 52.0495 11.338 52.8036 12.0673 53.6445C16.2752 58.4973 17.0963 64.4135 12.1984 69.8197C11.5006 70.59 10.8422 71.3984 10.2808 72.0521C10.8999 71.7022 11.7498 71.2926 12.5316 70.7745C15.9 68.5393 18.5916 65.6043 20.7926 62.1675C21.8971 60.4423 22.4191 60.3989 24.2424 61.1855C26.6926 62.2434 29.1979 63.182 31.7295 64.0066C33.2353 64.4976 34.8382 64.6766 36.546 65.0265C36.2154 66.4859 35.8901 67.9182 35.5675 69.3531C35.6383 69.4209 35.7065 69.486 35.7773 69.5538C36.7821 68.5909 37.939 67.7445 38.747 66.6297C39.6468 65.3927 40.7198 65.0455 42.1102 64.8936C43.6134 64.7281 45.0798 64.2318 46.5568 63.8818V63.8791ZM22.8887 8.74313C22.8939 8.83536 22.8887 9.01982 22.9176 9.20156C23.1458 10.7966 23.9512 11.9928 25.3652 12.6547C25.6511 12.7903 26.2624 12.633 26.4775 12.3834C26.8264 11.9792 26.5824 11.5344 26.1181 11.2713C25.9108 11.1546 25.7114 11.0217 25.5252 10.8725C24.3394 9.92853 24.1453 8.20061 25.0766 6.95825C25.9764 5.75929 27.4691 5.57483 28.6942 6.51339C28.9067 6.67614 29.0956 6.88501 29.3291 7.00979C29.8564 7.29461 30.4493 6.97995 30.3915 6.39946C30.3548 6.04411 30.1423 5.65079 29.8984 5.38495C28.8201 4.21854 26.9759 3.88218 25.4648 4.52506C23.8698 5.20321 22.8782 6.79278 22.8913 8.74042L22.8887 8.74313ZM45.678 12.5407C45.6701 14.1276 46.8637 15.4215 48.3774 15.4622C49.8963 15.5029 51.2028 14.1574 51.1897 12.5625C51.1792 11.0027 49.9357 9.70067 48.4377 9.67897C46.9687 9.65727 45.6858 10.9864 45.678 12.5435V12.5407Z" fill="#003262"/>
<path id="Vector_2" d="M58.5039 8.7698C56.9614 7.32671 55.5447 5.76154 53.8973 4.52461C52.2682 3.30123 50.4056 2.40879 48.6663 1.38615C50.0304 -0.170877 53.147 -0.379746 55.487 1.01723C58.0763 2.56341 59.4221 5.95685 58.5039 8.7698Z" fill="#003262"/>
<path id="Vector_3" d="M55.1459 52.2525C55.1538 53.069 54.4953 53.8068 53.7267 53.8448C53.0026 53.8801 52.3206 53.1748 52.3048 52.3773C52.2865 51.5418 52.9449 50.8257 53.7372 50.8148C54.5426 50.804 55.1381 51.4116 55.1459 52.2525Z" fill="#003262"/>
<path id="Vector_4" d="M50.1065 12.5511C50.1117 13.4815 49.309 14.3306 48.4275 14.3306C47.5303 14.3306 46.7486 13.4924 46.7669 12.5484C46.7827 11.6749 47.5697 10.8422 48.4065 10.8096C49.3011 10.7744 50.1012 11.5936 50.1065 12.5511Z" fill="#003262"/>
</g>
<defs>
<clipPath id="clip0_2081_2458">
<rect width="69" height="92" fill="white"/>
</clipPath>
</defs>
</svg>
