<svg width="41" height="42" viewBox="0 0 41 42" fill="none" xmlns="http://www.w3.org/2000/svg">
<circle cx="20" cy="21" r="20" fill="white" stroke="#003262" stroke-width="0.5"/>
<g clip-path="url(#clip0_1324_4466)">
<path d="M22.5942 16.7227C23.6191 16.2052 24.465 16.5041 25.2657 17.0007C27.249 18.2325 28.7732 19.9181 29.9056 21.9763C30.625 23.2834 30.5421 24.5797 29.8408 25.8608C29.2914 26.864 28.535 27.6905 27.6826 28.4307C27.6341 28.4726 27.5849 28.5136 27.5701 28.6116C27.9774 28.3771 28.3831 28.1418 28.7912 27.9099C29.0663 27.7541 29.3341 27.5799 29.6231 27.4585C30.0633 27.2735 30.3729 27.4041 30.5906 27.8395C30.8525 28.3645 30.8435 28.918 30.699 29.4699C30.4107 30.5718 29.8161 31.5005 29.0754 32.3378C27.6727 33.9238 25.8668 34.7469 23.8474 35.1087C21.5201 35.5257 19.1779 35.5357 16.8998 34.8616C12.7846 33.6433 10.3538 30.7929 9.47672 26.5533C9.18765 25.1583 9.04804 23.723 9.44798 22.3397C10.5878 18.3957 12.158 14.6502 14.6045 11.3368C14.6267 11.3066 14.6455 11.2723 14.6718 11.2472C15.1054 10.8369 15.282 10.4232 15.0948 9.75751C14.8426 8.85902 15.4331 7.77715 16.2354 7.30404C17.0591 6.81837 18.0372 6.92136 18.8363 7.55441C18.9307 7.62977 19.1089 7.64568 19.2354 7.6214C21.1497 7.25212 23.0188 7.3526 24.8189 8.16652C25.4694 8.46043 26.068 8.84813 26.5222 9.41168C26.9476 9.93922 27.4847 10.2926 28.0702 10.5848C28.494 10.7958 28.9267 10.9909 29.362 11.176C29.6092 11.2807 29.7233 11.4297 29.6297 11.701C29.2667 12.7502 28.7165 13.6596 27.7721 14.2726C27.3048 14.5765 26.7743 14.5933 26.2454 14.6226C25.5794 14.6594 24.9093 14.6636 24.2507 14.7557C23.5937 14.8478 23.0155 15.1392 22.7667 15.8334C22.6755 16.0871 22.6599 16.3693 22.5942 16.7219V16.7227ZM23.7743 26.7191C23.6019 26.1975 23.4368 25.7486 23.3071 25.2898C23.1978 24.9021 23.1863 24.5035 23.3654 24.1267C23.5321 23.7758 23.799 23.6904 24.116 23.9064C24.3229 24.0471 24.502 24.2288 24.6933 24.3929C25.0686 24.7153 25.4373 25.0461 25.825 25.3526C25.9038 25.4154 26.0828 25.4371 26.1666 25.3894C27.1923 24.8049 28.0217 24.0119 28.5638 22.9368C28.829 22.4117 28.8019 22.1656 28.3675 21.7871C27.1488 20.7261 25.7174 20.1643 24.1266 20.0847C22.3914 19.9985 20.8294 20.5779 19.4588 21.6263C18.5792 22.2987 17.795 23.0992 16.9466 23.816C16.6756 24.0446 16.3447 24.2096 16.0227 24.3628C15.8232 24.4574 15.6302 24.3795 15.4356 24.2338C14.951 23.8713 14.4534 23.5204 13.9327 23.2164C13.146 22.7576 12.3165 22.39 11.3836 22.1806C11.6891 22.4184 11.9692 22.6177 12.2287 22.8421C12.4898 23.0674 12.7493 23.3002 12.9776 23.5598C14.2949 25.0578 14.5519 26.8841 13.0187 28.553C12.8002 28.7908 12.5941 29.0403 12.4184 29.2421C12.6122 29.1341 12.8783 29.0076 13.123 28.8477C14.1774 28.1577 15.02 27.2517 15.709 26.1908C16.0548 25.6582 16.2182 25.6448 16.789 25.8876C17.556 26.2142 18.3403 26.5039 19.1327 26.7585C19.6041 26.9101 20.1059 26.9653 20.6405 27.0733C20.5371 27.5238 20.4352 27.966 20.3342 28.4089C20.3564 28.4299 20.3777 28.45 20.3999 28.4709C20.7144 28.1736 21.0766 27.9124 21.3295 27.5682C21.6112 27.1864 21.9471 27.0792 22.3824 27.0323C22.8529 26.9812 23.312 26.828 23.7743 26.72V26.7191ZM16.3652 9.69889C16.3668 9.72736 16.3652 9.7843 16.3742 9.84041C16.4457 10.3328 16.6978 10.7021 17.1404 10.9064C17.23 10.9482 17.4213 10.8997 17.4886 10.8226C17.5979 10.6979 17.5215 10.5605 17.3761 10.4793C17.3113 10.4433 17.2488 10.4023 17.1905 10.3562C16.8193 10.0648 16.7586 9.53142 17.0501 9.14791C17.3318 8.77779 17.7991 8.72085 18.1826 9.01058C18.2491 9.06082 18.3082 9.1253 18.3813 9.16382C18.5464 9.25174 18.732 9.15461 18.7139 8.97541C18.7024 8.86572 18.6359 8.7443 18.5595 8.66224C18.222 8.30217 17.6447 8.19834 17.1716 8.39679C16.6723 8.60614 16.3619 9.09683 16.366 9.69806L16.3652 9.69889ZM23.4992 10.8712C23.4968 11.3611 23.8704 11.7605 24.3443 11.773C24.8198 11.7856 25.2287 11.3703 25.2246 10.8779C25.2213 10.3964 24.8321 9.99448 24.3632 9.98778C23.9033 9.98109 23.5017 10.3914 23.4992 10.872V10.8712Z" fill="#003262"/>
<path d="M27.5147 9.7071C27.0318 9.26162 26.5883 8.77846 26.0726 8.39662C25.5626 8.01897 24.9795 7.74348 24.4351 7.42779C24.8621 6.94715 25.8377 6.88267 26.5703 7.31391C27.3808 7.79121 27.8021 8.83875 27.5147 9.7071Z" fill="#003262"/>
<path d="M26.4632 23.1301C26.4657 23.3822 26.2596 23.6099 26.019 23.6217C25.7923 23.6325 25.5788 23.4148 25.5738 23.1686C25.5681 22.9107 25.7742 22.6897 26.0222 22.6863C26.2744 22.683 26.4608 22.8705 26.4632 23.1301Z" fill="#003262"/>
<path d="M24.8859 10.8746C24.8875 11.1618 24.6362 11.4239 24.3603 11.4239C24.0794 11.4239 23.8347 11.1652 23.8404 10.8738C23.8454 10.6041 24.0917 10.3471 24.3537 10.337C24.6337 10.3261 24.8842 10.579 24.8859 10.8746Z" fill="#003262"/>
</g>
<defs>
<clipPath id="clip0_1324_4466">
<rect width="21.6" height="28.4" fill="white" transform="translate(9.2002 7)"/>
</clipPath>
</defs>
</svg>
